# xmcd CD database file
#
# Track frame offsets:
#	150
#	13097
#	25842
#	37717
#	51417
#	64714
#	79121
#	91532
#	105275
#	115517
#	127355
#	141054
#	158762
#	175229
#	189039
#	200582
#
# Disc length: 2910 seconds
#
# Revision: 0
# Processed by: cddbd v1.5.2PL0 Copyright (c) Steve Scherf et al.
# Submitted via: CDex 1.51
#
DISCID=c10b5c10
DTITLE=J.B. Lenoir - An Introduction To J.B. Lenoir
DYEAR=2006
DGENRE=Blues
TTITLE0=The Mojo (Take 1)
TTITLE1=(I Wanna) Play A Little While
TTITLE2=Lets Roll (Take 2)
TTITLE3=Louise
TTITLE4=How Much More
TTITLE5=I'll Die Tryin'
TTITLE6=I Want My Baby (Take 4)
TTITLE7=How Can I Leave
TTITLE8=I Feel So Good
TTITLE9=I Sing Um The Way I Feel
TTITLE10=I Want To Know
TTITLE11=JB_s Harp Rack Blues
TTITLE12=My Dear Old Mother
TTITLE13=Alabama Blues
TTITLE14=Mama Talk to Your Daughter
TTITLE15=I Had My Trouble
EXTD=YEAR: 2006
EXTT0=
EXTT1=
EXTT2=
EXTT3=
EXTT4=
EXTT5=
EXTT6=
EXTT7=
EXTT8=
EXTT9=
EXTT10=
EXTT11=
EXTT12=
EXTT13=
EXTT14=
EXTT15=
PLAYORDER=
